<svg version="1.1" id="Layer_1" xmlns="http://www.w3.org/2000/svg" xmlns:xlink="http://www.w3.org/1999/xlink" x="0px" y="0px"
	 width="100%" viewBox="0 0 502 500" enable-background="new 0 0 502 500" xml:space="preserve">
<path fill="#BC6C25" opacity="1.000000" stroke="none" 
	d="
M329.018341,99.140640 
	C336.367889,86.381981 347.937744,80.342842 360.665070,82.324295 
	C372.988190,84.242813 383.083038,93.926590 385.551849,106.461769 
	C386.124115,109.367409 386.034363,112.403435 386.272614,115.702652 
	C394.050293,115.142853 401.481720,116.431023 407.747375,121.411499 
	C412.906799,125.512627 416.979919,130.508942 418.918335,136.999741 
	C422.721313,149.734390 418.317108,162.216339 406.902771,170.903259 
	C397.837952,177.802078 383.980896,177.743240 373.064362,171.042419 
	C305.728241,238.378448 238.481064,305.625519 170.878372,373.228088 
	C177.753937,384.923615 178.483688,397.471466 168.571945,409.093842 
	C159.811111,419.366730 147.804886,422.697083 136.228195,418.303284 
	C121.699051,412.788910 115.161804,401.828003 115.820274,386.188873 
	C100.064491,386.411194 88.295616,380.003113 83.334709,364.883606 
	C79.189133,352.248993 83.180130,341.076416 93.618729,332.819946 
	C105.085701,323.750061 117.232590,324.455963 129.391907,331.695557 
	C196.681915,264.300232 263.906250,196.970688 331.400818,129.370468 
	C325.531525,120.102028 324.070679,110.050179 329.018341,99.140640 
M216.997726,318.497772 
	C268.703827,266.791229 320.409943,215.084702 372.082733,163.411499 
	C383.625854,172.234741 395.470551,173.179520 404.325409,166.174744 
	C414.131897,158.417160 417.607330,147.030045 413.132629,136.451233 
	C410.366394,129.911484 405.802460,124.328995 398.942902,122.620712 
	C392.656555,121.055191 385.844025,121.602486 379.478455,121.231361 
	C383.275696,107.248268 379.277161,95.903931 367.679993,89.780846 
	C357.360870,84.332542 345.371979,86.842285 337.058502,96.191109 
	C328.710297,105.579041 329.109100,116.742683 338.125092,129.496750 
	C268.485291,199.111328 198.872391,268.699036 129.245880,338.300323 
	C119.677803,329.928528 107.223274,328.522797 98.446419,334.989929 
	C87.884506,342.772339 83.700386,354.845978 89.086555,365.676300 
	C91.464203,370.457214 95.764023,374.851807 100.232506,377.890533 
	C107.044899,382.523224 114.982773,381.823212 122.819839,378.736359 
	C118.774048,394.624542 122.656136,405.892944 133.944977,412.075775 
	C144.145615,417.662598 156.458267,415.622742 164.452316,405.881195 
	C167.631027,402.007629 169.679672,396.589081 170.544632,391.580627 
	C171.810577,384.250275 168.631668,377.715912 163.223358,372.238647 
	C181.164215,354.309052 198.830978,336.653412 216.997726,318.497772 
z"/>
<path fill="#FEFAE0" opacity="1.000000" stroke="none" 
	d="
M216.747726,318.747772 
	C198.830978,336.653412 181.164215,354.309052 163.223358,372.238647 
	C168.631668,377.715912 171.810577,384.250275 170.544632,391.580627 
	C169.679672,396.589081 167.631027,402.007629 164.452316,405.881195 
	C156.458267,415.622742 144.145615,417.662598 133.944977,412.075775 
	C122.656136,405.892944 118.774048,394.624542 122.819839,378.736359 
	C114.982773,381.823212 107.044899,382.523224 100.232506,377.890533 
	C95.764023,374.851807 91.464203,370.457214 89.086555,365.676300 
	C83.700386,354.845978 87.884506,342.772339 98.446419,334.989929 
	C107.223274,328.522797 119.677803,329.928528 129.245880,338.300323 
	C198.872391,268.699036 268.485291,199.111328 338.125092,129.496750 
	C329.109100,116.742683 328.710297,105.579041 337.058502,96.191109 
	C345.371979,86.842285 357.360870,84.332542 367.679993,89.780846 
	C379.277161,95.903931 383.275696,107.248268 379.478455,121.231361 
	C385.844025,121.602486 392.656555,121.055191 398.942902,122.620712 
	C405.802460,124.328995 410.366394,129.911484 413.132629,136.451233 
	C417.607330,147.030045 414.131897,158.417160 404.325409,166.174744 
	C395.470551,173.179520 383.625854,172.234741 372.082733,163.411499 
	C320.409943,215.084702 268.703827,266.791229 216.747726,318.747772 
z"/>
</svg>