<svg version="1.1" id="Layer_1" xmlns="http://www.w3.org/2000/svg" xmlns:xlink="http://www.w3.org/1999/xlink" x="0px" y="0px"
	 width="100%" viewBox="0 0 502 500" enable-background="new 0 0 502 500" xml:space="preserve">
<path fill="#BC6C25" opacity="1.000000" stroke="none" 
	d="
M357.782623,65.260277 
	C379.690857,67.288246 393.204681,78.963722 399.872528,99.206497 
	C400.355072,100.671432 402.209595,102.166832 403.759064,102.726273 
	C431.430176,112.717155 443.123657,142.968094 429.007507,168.329437 
	C420.323456,183.931335 401.720886,193.159119 383.798553,190.481094 
	C380.842529,190.039398 378.951782,190.571503 376.827118,192.699631 
	C315.497650,254.129669 254.108887,315.500549 192.654236,376.805359 
	C190.414124,379.040070 189.716934,381.118713 190.045212,384.228699 
	C193.057968,412.771362 172.131897,435.472015 143.556244,434.834320 
	C126.205414,434.447083 109.484741,421.929596 103.508492,404.439148 
	C102.448486,401.336914 100.935432,400.029785 97.894936,399.205872 
	C75.655922,393.179749 61.579765,369.986145 66.189957,347.263489 
	C70.755020,324.763275 92.621918,308.692719 115.066223,311.690918 
	C119.795006,312.322601 122.941788,311.292358 126.385345,307.835052 
	C187.173080,246.804214 248.131943,185.943832 308.941772,124.934937 
	C310.538635,123.332855 311.928619,120.338226 311.647003,118.229065 
	C307.751434,89.051453 327.797394,65.649727 357.782623,65.260277 
M237.220993,231.126617 
	C201.336823,266.959808 165.452637,302.792999 129.563934,338.630737 
	C119.553123,328.191833 106.017456,330.035522 99.092758,334.513611 
	C88.686493,341.243256 84.302971,353.616547 88.329437,364.569916 
	C90.870911,371.483551 95.781097,376.244720 102.498703,379.170593 
	C109.213493,382.095215 115.985214,381.360992 122.987602,378.697815 
	C118.477020,393.966888 122.612610,405.958038 134.045959,412.137665 
	C144.900024,418.004181 157.680298,414.940521 166.023697,404.472046 
	C173.270172,395.379883 172.329910,383.204529 162.644272,371.440094 
	C164.042145,370.494568 165.773773,369.679718 167.049667,368.407745 
	C193.115891,342.421295 219.142303,316.394867 245.147736,290.347504 
	C253.842819,281.638367 262.457764,272.849152 271.734497,263.855011 
	C305.272095,230.348846 338.809662,196.842697 372.344818,163.338989 
	C382.536377,173.473831 396.644958,172.043823 404.201172,166.264008 
	C414.480865,158.400955 417.821228,145.900345 412.700043,135.200287 
	C406.792725,122.857765 395.581482,118.623787 379.307251,122.589317 
	C382.889526,106.113823 379.158081,95.694633 367.525452,89.691483 
	C357.395691,84.463905 345.309082,86.465134 337.785004,95.692101 
	C334.596924,99.601768 332.316071,104.860481 331.361053,109.839447 
	C329.918488,117.360085 333.298065,124.018425 339.037262,130.237396 
	C337.556854,131.340698 336.218658,132.105392 335.166260,133.156296 
	C307.104523,161.178162 279.064240,189.221512 251.043121,217.284012 
	C246.582764,221.750961 242.230957,226.326294 237.220993,231.126617 
z"/>
<path fill="#FEFAE0" opacity="1.000000" stroke="none" 
	d="
M271.109314,264.096527 
	C262.457764,272.849152 253.842819,281.638367 245.147736,290.347504 
	C219.142303,316.394867 193.115891,342.421295 167.049667,368.407745 
	C165.773773,369.679718 164.042145,370.494568 162.644272,371.440094 
	C172.329910,383.204529 173.270172,395.379883 166.023697,404.472046 
	C157.680298,414.940521 144.900024,418.004181 134.045959,412.137665 
	C122.612610,405.958038 118.477020,393.966888 122.987602,378.697815 
	C115.985214,381.360992 109.213493,382.095215 102.498703,379.170593 
	C95.781097,376.244720 90.870911,371.483551 88.329437,364.569916 
	C84.302971,353.616547 88.686493,341.243256 99.092758,334.513611 
	C106.017456,330.035522 119.553123,328.191833 129.563934,338.630737 
	C165.452637,302.792999 201.336823,266.959808 237.732346,231.265656 
	C249.198898,242.301971 260.154114,253.199249 271.109314,264.096527 
z"/>
<path fill="#BC6C25" opacity="1.000000" stroke="none" 
	d="
M271.421906,263.975769 
	C260.154114,253.199249 249.198898,242.301971 238.036331,231.128098 
	C242.230957,226.326294 246.582764,221.750961 251.043121,217.284012 
	C279.064240,189.221512 307.104523,161.178162 335.166260,133.156296 
	C336.218658,132.105392 337.556854,131.340698 339.037262,130.237396 
	C333.298065,124.018425 329.918488,117.360085 331.361053,109.839447 
	C332.316071,104.860481 334.596924,99.601768 337.785004,95.692101 
	C345.309082,86.465134 357.395691,84.463905 367.525452,89.691483 
	C379.158081,95.694633 382.889526,106.113823 379.307251,122.589317 
	C395.581482,118.623787 406.792725,122.857765 412.700043,135.200287 
	C417.821228,145.900345 414.480865,158.400955 404.201172,166.264008 
	C396.644958,172.043823 382.536377,173.473831 372.344818,163.338989 
	C338.809662,196.842697 305.272095,230.348846 271.421906,263.975769 
z"/>
</svg>