<svg version="1.1" id="Layer_1" xmlns="http://www.w3.org/2000/svg" xmlns:xlink="http://www.w3.org/1999/xlink" x="0px" y="0px"
	 width="100%" viewBox="0 0 502 500" enable-background="new 0 0 502 500" xml:space="preserve">
<path fill="#BC6C25" opacity="1.000000" stroke="none" 
	d="
M343.250702,67.032181 
	C368.257324,60.519566 392.093842,73.782753 399.290466,98.081978 
	C400.085144,100.765182 401.290436,102.020958 403.941345,102.956757 
	C431.398254,112.649193 442.995361,142.832535 429.113983,168.110825 
	C420.416687,183.948837 401.779999,193.023041 383.512634,190.644806 
	C381.472168,190.379166 378.558014,191.241165 377.129120,192.664520 
	C315.508148,254.046570 254.025482,315.567444 192.434418,376.979614 
	C190.098877,379.308411 189.788406,381.538666 190.103806,384.503082 
	C193.051956,412.211517 172.509415,434.970459 144.770065,434.834991 
	C126.724304,434.746826 109.775467,422.448944 103.577682,404.634796 
	C102.547813,401.674713 101.260994,400.097534 98.101837,399.244812 
	C75.700394,393.198334 61.723980,370.384888 66.151344,347.463562 
	C70.518951,324.851624 92.573769,308.679688 115.363861,311.744720 
	C119.975700,312.364960 122.954239,311.261047 126.237183,307.966492 
	C186.925369,247.063141 247.731842,186.277557 308.606903,125.560928 
	C311.381287,122.793770 312.198151,120.310333 311.575195,116.403702 
	C308.390778,96.433525 320.347260,74.956543 343.250702,67.032181 
M145.445847,322.945862 
	C140.234268,328.252289 135.022690,333.558716 129.845169,338.830475 
	C119.891968,330.002441 107.532181,328.541809 98.718094,334.765930 
	C88.359909,342.080383 84.269661,354.042328 88.510513,365.001984 
	C91.103378,371.702759 95.939774,376.307617 102.478989,379.164612 
	C109.196785,382.099640 115.973122,381.363220 122.973465,378.705017 
	C118.492371,394.010742 122.620026,405.966919 134.052505,412.141449 
	C144.756363,417.922485 157.217041,415.051575 165.726318,404.843903 
	C173.286331,395.774963 172.446457,383.376312 164.111771,373.218750 
	C233.837723,303.487793 303.500519,233.820023 373.166351,164.149231 
	C382.478394,173.312332 396.086975,172.133163 403.882294,166.524536 
	C414.110657,159.165466 418.164978,146.610611 412.816589,136.149460 
	C410.366425,131.357040 406.156982,126.872589 401.666473,123.852837 
	C394.863617,119.278091 386.904297,120.087227 379.095428,122.960388 
	C383.192871,106.743523 379.110626,95.475739 367.325195,89.564293 
	C356.722229,84.245972 344.774750,87.062531 336.437653,96.845871 
	C328.665436,105.966347 329.321259,117.610924 338.555298,129.953323 
	C274.383057,194.086578 210.164444,258.266205 145.445847,322.945862 
z"/>
<path fill="#BC6C25" opacity="1.000000" stroke="none" 
	d="
M145.695831,322.695862 
	C210.164444,258.266205 274.383057,194.086578 338.555298,129.953323 
	C329.321259,117.610924 328.665436,105.966347 336.437653,96.845871 
	C344.774750,87.062531 356.722229,84.245972 367.325195,89.564293 
	C379.110626,95.475739 383.192871,106.743523 379.095428,122.960388 
	C386.904297,120.087227 394.863617,119.278091 401.666473,123.852837 
	C406.156982,126.872589 410.366425,131.357040 412.816589,136.149460 
	C418.164978,146.610611 414.110657,159.165466 403.882294,166.524536 
	C396.086975,172.133163 382.478394,173.312332 373.166351,164.149231 
	C303.500519,233.820023 233.837723,303.487793 164.111771,373.218750 
	C172.446457,383.376312 173.286331,395.774963 165.726318,404.843903 
	C157.217041,415.051575 144.756363,417.922485 134.052505,412.141449 
	C122.620026,405.966919 118.492371,394.010742 122.973465,378.705017 
	C115.973122,381.363220 109.196785,382.099640 102.478989,379.164612 
	C95.939774,376.307617 91.103378,371.702759 88.510513,365.001984 
	C84.269661,354.042328 88.359909,342.080383 98.718094,334.765930 
	C107.532181,328.541809 119.891968,330.002441 129.845169,338.830475 
	C135.022690,333.558716 140.234268,328.252289 145.695831,322.695862 
z"/>
</svg>